<?xml version="1.0" encoding="UTF-8" standalone="no"?>
<!DOCTYPE svg PUBLIC "-//W3C//DTD SVG 1.1//EN"
 "http://www.w3.org/Graphics/SVG/1.1/DTD/svg11.dtd">
<!-- Generated by graphviz version 2.40.1 (20161225.0304)
 -->
<!-- Title: dependencies Pages: 1 -->
<svg width="1198pt" height="352pt"
 viewBox="0.00 0.00 1198.00 352.00" xmlns="http://www.w3.org/2000/svg" xmlns:xlink="http://www.w3.org/1999/xlink">
<g id="graph0" class="graph" transform="scale(1 1) rotate(0) translate(4 348)">
<title>dependencies</title>
<polygon fill="#ffffff" stroke="transparent" points="-4,4 -4,-348 1194,-348 1194,4 -4,4"/>
<text text-anchor="start" x="574.0091" y="-42.4" font-family="sans-serif" font-weight="bold" font-size="14.00" fill="#000000">Legend</text>
<polygon fill="#ffffb3" stroke="transparent" points="361,-10 361,-30 381,-30 381,-10 361,-10"/>
<text text-anchor="start" x="384.629" y="-15.4" font-family="sans-serif" font-size="14.00" fill="#000000"> &#160;Declarations</text>
<polygon fill="#8dd3c7" stroke="transparent" points="474,-10 474,-30 494,-30 494,-10 474,-10"/>
<text text-anchor="start" x="497.7251" y="-15.4" font-family="sans-serif" font-size="14.00" fill="#000000"> &#160;Module</text>
<polygon fill="#80b1d3" stroke="transparent" points="560,-10 560,-30 580,-30 580,-10 560,-10"/>
<text text-anchor="start" x="583.7812" y="-15.4" font-family="sans-serif" font-size="14.00" fill="#000000"> &#160;Bootstrap</text>
<polygon fill="#fdb462" stroke="transparent" points="657,-10 657,-30 677,-30 677,-10 657,-10"/>
<text text-anchor="start" x="680.6732" y="-15.4" font-family="sans-serif" font-size="14.00" fill="#000000"> &#160;Providers</text>
<polygon fill="#fb8072" stroke="transparent" points="753,-10 753,-30 773,-30 773,-10 753,-10"/>
<text text-anchor="start" x="776.7258" y="-15.4" font-family="sans-serif" font-size="14.00" fill="#000000"> &#160;Exports</text>
<g id="clust1" class="cluster">
<title>cluster_AppModule</title>
<polygon fill="none" stroke="#000000" stroke-dasharray="1,5" points="836,-138 836,-336 1182,-336 1182,-138 836,-138"/>
</g>
<g id="clust2" class="cluster">
<title>cluster_AppModule_declarations</title>
<polygon fill="none" stroke="#000000" points="1052,-146 1052,-198 1174,-198 1174,-146 1052,-146"/>
</g>
<g id="clust4" class="cluster">
<title>cluster_AppModule_imports</title>
<polygon fill="none" stroke="#000000" points="844,-146 844,-198 1044,-198 1044,-146 844,-146"/>
</g>
<g id="clust6" class="cluster">
<title>cluster_AppModule_bootstrap</title>
<polygon fill="none" stroke="#000000" points="1050,-276 1050,-328 1174,-328 1174,-276 1050,-276"/>
</g>
<g id="clust8" class="cluster">
<title>cluster_Ng2NumberSeparatorModule</title>
<polygon fill="none" stroke="#000000" stroke-dasharray="1,5" points="8,-70 8,-206 828,-206 828,-70 8,-70"/>
</g>
<g id="clust9" class="cluster">
<title>cluster_Ng2NumberSeparatorModule_declarations</title>
<polygon fill="none" stroke="#000000" points="636,-146 636,-198 820,-198 820,-146 636,-146"/>
</g>
<g id="clust10" class="cluster">
<title>cluster_Ng2NumberSeparatorModule_NumberSeparatorDirective_providers</title>
<polygon fill="none" stroke="#000000" points="16,-78 16,-130 482,-130 482,-78 16,-78"/>
</g>
<g id="clust12" class="cluster">
<title>cluster_Ng2NumberSeparatorModule_exports</title>
<polygon fill="none" stroke="#000000" points="632,-78 632,-130 820,-130 820,-78 632,-78"/>
</g>
<g id="clust14" class="cluster">
<title>cluster_Ng2NumberSeparatorModule_providers</title>
<polygon fill="none" stroke="#000000" points="490,-78 490,-130 624,-130 624,-78 490,-78"/>
</g>
<!-- AppComponent -->
<g id="node1" class="node">
<title>AppComponent</title>
<polygon fill="#ffffb3" stroke="#000000" points="1165.9399,-190 1060.0601,-190 1060.0601,-154 1165.9399,-154 1165.9399,-190"/>
<text text-anchor="middle" x="1113" y="-167.8" font-family="Times,serif" font-size="14.00" fill="#000000">AppComponent</text>
</g>
<!-- AppModule -->
<g id="node2" class="node">
<title>AppModule</title>
<polygon fill="#8dd3c7" stroke="#000000" points="1153.6571,-255 1150.6571,-259 1129.6571,-259 1126.6571,-255 1070.3429,-255 1070.3429,-219 1153.6571,-219 1153.6571,-255"/>
<text text-anchor="middle" x="1112" y="-232.8" font-family="Times,serif" font-size="14.00" fill="#000000">AppModule</text>
</g>
<!-- AppComponent&#45;&gt;AppModule -->
<g id="edge1" class="edge">
<title>AppComponent&#45;&gt;AppModule</title>
<path fill="none" stroke="#000000" d="M1125.9427,-190.1061C1125.9427,-190.1061 1125.9427,-208.991 1125.9427,-208.991"/>
<polygon fill="#000000" stroke="#000000" points="1122.4428,-208.9909 1125.9427,-218.991 1129.4428,-208.991 1122.4428,-208.9909"/>
</g>
<!-- AppComponent&#45;&gt;AppModule -->
<g id="edge3" class="edge">
<title>AppComponent&#45;&gt;AppModule</title>
<path fill="none" stroke="#000000" d="M1098.0573,-190.1061C1098.0573,-190.1061 1098.0573,-208.991 1098.0573,-208.991"/>
<polygon fill="#000000" stroke="#000000" points="1094.5574,-208.9909 1098.0573,-218.991 1101.5574,-208.991 1094.5574,-208.9909"/>
</g>
<!-- AppComponent  -->
<g id="node3" class="node">
<title>AppComponent </title>
<polygon fill="#80b1d3" stroke="#000000" points="1166.439,-320 1057.561,-320 1057.561,-284 1166.439,-284 1166.439,-320"/>
<text text-anchor="middle" x="1112" y="-297.8" font-family="Times,serif" font-size="14.00" fill="#000000">AppComponent </text>
</g>
<!-- AppModule&#45;&gt;AppComponent  -->
<g id="edge2" class="edge">
<title>AppModule&#45;&gt;AppComponent </title>
<path fill="none" stroke="#000000" stroke-dasharray="1,5" d="M1098.0573,-255.1061C1098.0573,-255.1061 1098.0573,-273.991 1098.0573,-273.991"/>
<polygon fill="#000000" stroke="#000000" points="1094.5574,-273.9909 1098.0573,-283.991 1101.5574,-273.991 1094.5574,-273.9909"/>
</g>
<!-- AppModule&#45;&gt;AppComponent  -->
<g id="edge5" class="edge">
<title>AppModule&#45;&gt;AppComponent </title>
<path fill="none" stroke="#000000" stroke-dasharray="1,5" d="M1125.9427,-255.1061C1125.9427,-255.1061 1125.9427,-273.991 1125.9427,-273.991"/>
<polygon fill="#000000" stroke="#000000" points="1122.4428,-273.9909 1125.9427,-283.991 1129.4428,-273.991 1122.4428,-273.9909"/>
</g>
<!-- Ng2NumberSeparatorModule -->
<g id="node4" class="node">
<title>Ng2NumberSeparatorModule</title>
<polygon fill="#8dd3c7" stroke="#000000" points="1035.6671,-190 1032.6671,-194 1011.6671,-194 1008.6671,-190 852.3329,-190 852.3329,-154 1035.6671,-154 1035.6671,-190"/>
<text text-anchor="middle" x="944" y="-167.8" font-family="Times,serif" font-size="14.00" fill="#000000">Ng2NumberSeparatorModule</text>
</g>
<!-- Ng2NumberSeparatorModule&#45;&gt;AppModule -->
<g id="edge4" class="edge">
<title>Ng2NumberSeparatorModule&#45;&gt;AppModule</title>
<path fill="none" stroke="#000000" d="M944,-190.1061C944,-209.3391 944,-237 944,-237 944,-237 1060.0399,-237 1060.0399,-237"/>
<polygon fill="#000000" stroke="#000000" points="1060.0399,-240.5001 1070.0399,-237 1060.0398,-233.5001 1060.0399,-240.5001"/>
</g>
<!-- NumberSeparatorDirective  -->
<g id="node6" class="node">
<title>NumberSeparatorDirective </title>
<polygon fill="#fb8072" stroke="#000000" points="811.5934,-122 640.4066,-122 640.4066,-86 811.5934,-86 811.5934,-122"/>
<text text-anchor="middle" x="726" y="-99.8" font-family="Times,serif" font-size="14.00" fill="#000000">NumberSeparatorDirective </text>
</g>
<!-- Ng2NumberSeparatorModule&#45;&gt;NumberSeparatorDirective  -->
<g id="edge7" class="edge">
<title>Ng2NumberSeparatorModule&#45;&gt;NumberSeparatorDirective </title>
<path fill="none" stroke="#000000" stroke-dasharray="5,2" d="M962.3167,-153.7333C962.3167,-135.4448 962.3167,-110 962.3167,-110 962.3167,-110 821.6499,-110 821.6499,-110"/>
<polygon fill="#000000" stroke="#000000" points="821.6499,-106.5001 811.6499,-110 821.6498,-113.5001 821.6499,-106.5001"/>
</g>
<!-- Ng2NumberSeparatorModule&#45;&gt;NumberSeparatorDirective  -->
<g id="edge11" class="edge">
<title>Ng2NumberSeparatorModule&#45;&gt;NumberSeparatorDirective </title>
<path fill="none" stroke="#000000" stroke-dasharray="5,2" d="M998.9501,-153.7079C998.9501,-131.7943 998.9501,-98 998.9501,-98 998.9501,-98 821.6142,-98 821.6142,-98"/>
<polygon fill="#000000" stroke="#000000" points="821.6143,-94.5001 811.6142,-98 821.6142,-101.5001 821.6143,-94.5001"/>
</g>
<!-- NumberSeparatorDirective -->
<g id="node5" class="node">
<title>NumberSeparatorDirective</title>
<polygon fill="#ffffb3" stroke="#000000" points="811.5939,-190 644.4061,-190 644.4061,-154 811.5939,-154 811.5939,-190"/>
<text text-anchor="middle" x="728" y="-167.8" font-family="Times,serif" font-size="14.00" fill="#000000">NumberSeparatorDirective</text>
</g>
<!-- NumberSeparatorDirective&#45;&gt;Ng2NumberSeparatorModule -->
<g id="edge6" class="edge">
<title>NumberSeparatorDirective&#45;&gt;Ng2NumberSeparatorModule</title>
<path fill="none" stroke="#000000" d="M811.8204,-166C811.8204,-166 842.3476,-166 842.3476,-166"/>
<polygon fill="#000000" stroke="#000000" points="842.3477,-169.5001 852.3476,-166 842.3476,-162.5001 842.3477,-169.5001"/>
</g>
<!-- NumberSeparatorDirective&#45;&gt;Ng2NumberSeparatorModule -->
<g id="edge9" class="edge">
<title>NumberSeparatorDirective&#45;&gt;Ng2NumberSeparatorModule</title>
<path fill="none" stroke="#000000" d="M811.8204,-178C811.8204,-178 842.3476,-178 842.3476,-178"/>
<polygon fill="#000000" stroke="#000000" points="842.3477,-181.5001 852.3476,-178 842.3476,-174.5001 842.3477,-181.5001"/>
</g>
<!-- UtilsService -->
<g id="node7" class="node">
<title>UtilsService</title>
<ellipse fill="#fdb462" stroke="#000000" cx="557" cy="-104" rx="58.5405" ry="18"/>
<text text-anchor="middle" x="557" y="-99.8" font-family="Times,serif" font-size="14.00" fill="#000000">UtilsService</text>
</g>
<!-- UtilsService&#45;&gt;Ng2NumberSeparatorModule -->
<g id="edge8" class="edge">
<title>UtilsService&#45;&gt;Ng2NumberSeparatorModule</title>
<path fill="none" stroke="#000000" d="M576.5899,-121.2046C576.5899,-127.4492 576.5899,-133 576.5899,-133 576.5899,-133 925.6833,-133 925.6833,-133 925.6833,-133 925.6833,-143.8701 925.6833,-143.8701"/>
<polygon fill="#000000" stroke="#000000" points="922.1834,-143.8701 925.6833,-153.8701 929.1834,-143.8701 922.1834,-143.8701"/>
</g>
<!-- UtilsService&#45;&gt;Ng2NumberSeparatorModule -->
<g id="edge12" class="edge">
<title>UtilsService&#45;&gt;Ng2NumberSeparatorModule</title>
<path fill="none" stroke="#000000" d="M537.4101,-121.1957C537.4101,-132.0371 537.4101,-144 537.4101,-144 537.4101,-144 889.0499,-144 889.0499,-144 889.0499,-144 889.0499,-144.9793 889.0499,-144.9793"/>
<polygon fill="#000000" stroke="#000000" points="885.55,-143.793 889.0499,-153.793 892.55,-143.7931 885.55,-143.793"/>
</g>
<!-- { provide: NG_VALIDATORS, useExisting: , multi: &#160;} -->
<g id="node8" class="node">
<title>{ provide: NG_VALIDATORS, useExisting: , multi: &#160;}</title>
<ellipse fill="#fdb462" stroke="#000000" cx="249" cy="-104" rx="225.4746" ry="18"/>
<text text-anchor="middle" x="249" y="-99.8" font-family="Times,serif" font-size="14.00" fill="#000000">{ provide: NG_VALIDATORS, useExisting: , multi: &#160;}</text>
</g>
<!-- { provide: NG_VALIDATORS, useExisting: , multi: &#160;}&#45;&gt;NumberSeparatorDirective -->
<g id="edge10" class="edge">
<title>{ provide: NG_VALIDATORS, useExisting: , multi: &#160;}&#45;&gt;NumberSeparatorDirective</title>
<path fill="none" stroke="#000000" d="M249,-122.2228C249,-142.3652 249,-172 249,-172 249,-172 634.2907,-172 634.2907,-172"/>
<polygon fill="#000000" stroke="#000000" points="634.2907,-175.5001 644.2907,-172 634.2906,-168.5001 634.2907,-175.5001"/>
</g>
</g>
</svg>
