<?xml version="1.0" encoding="UTF-8" standalone="no"?>
<!DOCTYPE svg PUBLIC "-//W3C//DTD SVG 1.1//EN"
 "http://www.w3.org/Graphics/SVG/1.1/DTD/svg11.dtd">
<!-- Generated by graphviz version 2.40.1 (20161225.0304)
 -->
<!-- Title: dependencies Pages: 1 -->
<svg width="504pt" height="284pt"
 viewBox="0.00 0.00 504.00 284.00" xmlns="http://www.w3.org/2000/svg" xmlns:xlink="http://www.w3.org/1999/xlink">
<g id="graph0" class="graph" transform="scale(1 1) rotate(0) translate(4 280)">
<title>dependencies</title>
<polygon fill="#ffffff" stroke="transparent" points="-4,4 -4,-280 500,-280 500,4 -4,4"/>
<text text-anchor="start" x="227.0091" y="-42.4" font-family="sans-serif" font-weight="bold" font-size="14.00" fill="#000000">Legend</text>
<polygon fill="#ffffb3" stroke="transparent" points="14,-10 14,-30 34,-30 34,-10 14,-10"/>
<text text-anchor="start" x="37.629" y="-15.4" font-family="sans-serif" font-size="14.00" fill="#000000"> &#160;Declarations</text>
<polygon fill="#8dd3c7" stroke="transparent" points="127,-10 127,-30 147,-30 147,-10 127,-10"/>
<text text-anchor="start" x="150.7251" y="-15.4" font-family="sans-serif" font-size="14.00" fill="#000000"> &#160;Module</text>
<polygon fill="#80b1d3" stroke="transparent" points="213,-10 213,-30 233,-30 233,-10 213,-10"/>
<text text-anchor="start" x="236.7812" y="-15.4" font-family="sans-serif" font-size="14.00" fill="#000000"> &#160;Bootstrap</text>
<polygon fill="#fdb462" stroke="transparent" points="310,-10 310,-30 330,-30 330,-10 310,-10"/>
<text text-anchor="start" x="333.6732" y="-15.4" font-family="sans-serif" font-size="14.00" fill="#000000"> &#160;Providers</text>
<polygon fill="#fb8072" stroke="transparent" points="406,-10 406,-30 426,-30 426,-10 406,-10"/>
<text text-anchor="start" x="429.7258" y="-15.4" font-family="sans-serif" font-size="14.00" fill="#000000"> &#160;Exports</text>
<g id="clust1" class="cluster">
<title>cluster_Ng2NumberSeparatorModule</title>
<polygon fill="none" stroke="#000000" stroke-dasharray="1,5" points="77,-70 77,-268 419,-268 419,-70 77,-70"/>
</g>
<g id="clust2" class="cluster">
<title>cluster_Ng2NumberSeparatorModule_declarations</title>
<polygon fill="none" stroke="#000000" points="227,-78 227,-130 411,-130 411,-78 227,-78"/>
</g>
<g id="clust5" class="cluster">
<title>cluster_Ng2NumberSeparatorModule_exports</title>
<polygon fill="none" stroke="#000000" points="154,-208 154,-260 342,-260 342,-208 154,-208"/>
</g>
<g id="clust7" class="cluster">
<title>cluster_Ng2NumberSeparatorModule_providers</title>
<polygon fill="none" stroke="#000000" points="85,-78 85,-130 219,-130 219,-78 85,-78"/>
</g>
<!-- NumberSeparatorDirective -->
<g id="node1" class="node">
<title>NumberSeparatorDirective</title>
<polygon fill="#ffffb3" stroke="#000000" points="402.5939,-122 235.4061,-122 235.4061,-86 402.5939,-86 402.5939,-122"/>
<text text-anchor="middle" x="319" y="-99.8" font-family="Times,serif" font-size="14.00" fill="#000000">NumberSeparatorDirective</text>
</g>
<!-- Ng2NumberSeparatorModule -->
<g id="node2" class="node">
<title>Ng2NumberSeparatorModule</title>
<polygon fill="#8dd3c7" stroke="#000000" points="339.6671,-187 336.6671,-191 315.6671,-191 312.6671,-187 156.3329,-187 156.3329,-151 339.6671,-151 339.6671,-187"/>
<text text-anchor="middle" x="248" y="-164.8" font-family="Times,serif" font-size="14.00" fill="#000000">Ng2NumberSeparatorModule</text>
</g>
<!-- NumberSeparatorDirective&#45;&gt;Ng2NumberSeparatorModule -->
<g id="edge1" class="edge">
<title>NumberSeparatorDirective&#45;&gt;Ng2NumberSeparatorModule</title>
<path fill="none" stroke="#000000" d="M287.3934,-122.1061C287.3934,-122.1061 287.3934,-140.991 287.3934,-140.991"/>
<polygon fill="#000000" stroke="#000000" points="283.8935,-140.9909 287.3934,-150.991 290.8935,-140.991 283.8935,-140.9909"/>
</g>
<!-- NumberSeparatorDirective  -->
<g id="node3" class="node">
<title>NumberSeparatorDirective </title>
<polygon fill="#fb8072" stroke="#000000" points="333.5934,-252 162.4066,-252 162.4066,-216 333.5934,-216 333.5934,-252"/>
<text text-anchor="middle" x="248" y="-229.8" font-family="Times,serif" font-size="14.00" fill="#000000">NumberSeparatorDirective </text>
</g>
<!-- Ng2NumberSeparatorModule&#45;&gt;NumberSeparatorDirective  -->
<g id="edge2" class="edge">
<title>Ng2NumberSeparatorModule&#45;&gt;NumberSeparatorDirective </title>
<path fill="none" stroke="#000000" stroke-dasharray="5,2" d="M248,-187.1061C248,-187.1061 248,-205.991 248,-205.991"/>
<polygon fill="#000000" stroke="#000000" points="244.5001,-205.9909 248,-215.991 251.5001,-205.991 244.5001,-205.9909"/>
</g>
<!-- UtilsService -->
<g id="node4" class="node">
<title>UtilsService</title>
<ellipse fill="#fdb462" stroke="#000000" cx="152" cy="-104" rx="58.5405" ry="18"/>
<text text-anchor="middle" x="152" y="-99.8" font-family="Times,serif" font-size="14.00" fill="#000000">UtilsService</text>
</g>
<!-- UtilsService&#45;&gt;Ng2NumberSeparatorModule -->
<g id="edge3" class="edge">
<title>UtilsService&#45;&gt;Ng2NumberSeparatorModule</title>
<path fill="none" stroke="#000000" d="M183.5932,-119.4041C183.5932,-119.4041 183.5932,-140.9397 183.5932,-140.9397"/>
<polygon fill="#000000" stroke="#000000" points="180.0933,-140.9397 183.5932,-150.9397 187.0933,-140.9398 180.0933,-140.9397"/>
</g>
</g>
</svg>
